<svg width="14" height="13" viewBox="0 0 14 13" fill="none" xmlns="http://www.w3.org/2000/svg">
<g clip-path="url(#clip0_3200_42546)">
<path d="M11.8175 3.11589C11.7139 3.11589 11.6146 3.07473 11.5413 3.00147C11.4681 2.92822 11.4269 2.82886 11.4269 2.72526C11.4269 2.62166 11.4681 2.5223 11.5413 2.44905C11.6146 2.37579 11.7139 2.33464 11.8175 2.33464C11.9211 2.33464 12.0205 2.37579 12.0938 2.44905C12.167 2.5223 12.2082 2.62166 12.2082 2.72526C12.2082 2.82886 12.167 2.92822 12.0938 3.00147C12.0205 3.07473 11.9211 3.11589 11.8175 3.11589ZM11.8175 3.11589V5.06901C11.8175 5.43255 11.8175 5.61432 11.7728 5.76172C11.7231 5.92569 11.6338 6.07489 11.5127 6.19608C11.3915 6.31728 11.2424 6.40673 11.0785 6.45651C10.9306 6.5013 10.7488 6.5013 10.3853 6.5013M2.18213 9.88672C2.28573 9.88672 2.38509 9.92787 2.45834 10.0011C2.5316 10.0744 2.57275 10.1737 2.57275 10.2773C2.57275 10.3809 2.5316 10.4803 2.45834 10.5536C2.38509 10.6268 2.28573 10.668 2.18213 10.668C2.07853 10.668 1.97917 10.6268 1.90592 10.5536C1.83266 10.4803 1.7915 10.3809 1.7915 10.2773C1.7915 10.1737 1.83266 10.0744 1.90592 10.0011C1.97917 9.92787 2.07853 9.88672 2.18213 9.88672ZM2.18213 9.88672V7.93359C2.18213 7.57005 2.18213 7.38828 2.22692 7.24089C2.27658 7.07691 2.36592 6.92772 2.48702 6.80652C2.60813 6.68533 2.75725 6.59588 2.92119 6.54609C3.06911 6.5013 3.25088 6.5013 3.61442 6.5013M3.61442 1.68359C3.61442 1.78719 3.57327 1.88655 3.50001 1.95981C3.42675 2.03306 3.3274 2.07422 3.2238 2.07422C3.1202 2.07422 3.02084 2.03306 2.94758 1.95981C2.87433 1.88655 2.83317 1.78719 2.83317 1.68359C2.83317 1.57999 2.87433 1.48064 2.94758 1.40738C3.02084 1.33412 3.1202 1.29297 3.2238 1.29297C3.3274 1.29297 3.42675 1.33412 3.50001 1.40738C3.57327 1.48064 3.61442 1.57999 3.61442 1.68359ZM3.61442 1.68359H5.56755C5.93109 1.68359 6.11286 1.68359 6.26025 1.72839C6.42423 1.77805 6.57342 1.86739 6.69462 1.98849C6.81581 2.10959 6.90526 2.25872 6.95505 2.42266C6.99984 2.57057 6.99984 2.75234 6.99984 3.11589M10.3853 11.319C10.3853 11.2154 10.4264 11.1161 10.4997 11.0428C10.5729 10.9695 10.6723 10.9284 10.7759 10.9284C10.8795 10.9284 10.9788 10.9695 11.0521 11.0428C11.1253 11.1161 11.1665 11.2154 11.1665 11.319C11.1665 11.4226 11.1253 11.522 11.0521 11.5952C10.9788 11.6685 10.8795 11.7096 10.7759 11.7096C10.6723 11.7096 10.5729 11.6685 10.4997 11.5952C10.4264 11.522 10.3853 11.4226 10.3853 11.319ZM10.3853 11.319H8.43213C8.06859 11.319 7.88682 11.319 7.73942 11.2742C7.57545 11.2246 7.42625 11.1352 7.30506 11.0141C7.18386 10.893 7.09441 10.7439 7.04463 10.5799C6.99984 10.432 6.99984 10.2503 6.99984 9.88672" stroke="#282EFF" stroke-width="0.78125" stroke-linecap="round" stroke-linejoin="round"/>
<path d="M3.63989 6.47721C3.63989 4.88138 3.63989 4.08346 4.13573 3.58763C4.63156 3.0918 5.42948 3.0918 7.02531 3.0918C8.62114 3.0918 9.41906 3.0918 9.91489 3.58763C10.4107 4.08346 10.4107 4.88138 10.4107 6.47721C10.4107 8.07305 10.4107 8.87096 9.91489 9.3668C9.41906 9.86263 8.62114 9.86263 7.02531 9.86263C5.42948 9.86263 4.63156 9.86263 4.13573 9.3668C3.63989 8.87096 3.63989 8.07305 3.63989 6.47721Z" stroke="#282EFF" stroke-width="0.78125" stroke-linecap="round" stroke-linejoin="round"/>
<path d="M7.25983 7.80347L6.49941 5.44878C6.47304 5.37448 6.42392 5.31038 6.35903 5.26559C6.29414 5.22081 6.21678 5.19761 6.13796 5.19931C6.05922 5.19772 5.98198 5.22097 5.91719 5.26575C5.85241 5.31053 5.80336 5.37457 5.77702 5.44878L5.0166 7.80347M8.56191 5.19931V7.80347M5.29629 7.02222H6.97962" stroke="#282EFF" stroke-width="0.78125" stroke-linecap="round" stroke-linejoin="round"/>
</g>
<defs>
<clipPath id="clip0_3200_42546">
<rect width="12.5" height="12.5" fill="white" transform="translate(0.75 0.25)"/>
</clipPath>
</defs>
</svg>
