<svg width="137" height="49" viewBox="0 0 137 49" fill="none" xmlns="http://www.w3.org/2000/svg">
<path d="M1.435 14.65C1.435 11.8347 2.06367 9.32 3.321 7.106C4.60567 4.86466 6.34133 3.129 8.528 1.899C10.742 0.641666 13.2157 0.0129993 15.949 0.0129993C19.147 0.0129993 21.9487 0.832999 24.354 2.473C26.7593 4.113 28.4403 6.38167 29.397 9.279H22.796C22.14 7.91233 21.2107 6.88733 20.008 6.204C18.8327 5.52067 17.466 5.179 15.908 5.179C14.2407 5.179 12.751 5.57533 11.439 6.368C10.1543 7.13333 9.143 8.22666 8.405 9.648C7.69433 11.0693 7.339 12.7367 7.339 14.65C7.339 16.536 7.69433 18.2033 8.405 19.652C9.143 21.0733 10.1543 22.1803 11.439 22.973C12.751 23.7383 14.2407 24.121 15.908 24.121C17.466 24.121 18.8327 23.7793 20.008 23.096C21.2107 22.3853 22.14 21.3467 22.796 19.98H29.397C28.4403 22.9047 26.7593 25.187 24.354 26.827C21.976 28.4397 19.1743 29.246 15.949 29.246C13.2157 29.246 10.742 28.631 8.528 27.401C6.34133 26.1437 4.60567 24.408 3.321 22.194C2.06367 19.98 1.435 17.4653 1.435 14.65ZM51.0277 23.547H39.6297L37.7437 29H31.7167L42.0077 0.340998H48.6907L58.9817 29H52.9137L51.0277 23.547ZM49.4697 18.955L45.3287 6.983L41.1877 18.955H49.4697ZM93.2093 0.381999V29H87.4693V10.386L79.8023 29H75.4563L67.7483 10.386V29H62.0083V0.381999H68.5273L77.6293 21.661L86.7313 0.381999H93.2093ZM118.933 9.238C118.933 10.7687 118.564 12.2037 117.826 13.543C117.116 14.8823 115.981 15.962 114.423 16.782C112.893 17.602 110.952 18.012 108.601 18.012H103.804V29H98.0643V0.381999H108.601C110.815 0.381999 112.701 0.764666 114.259 1.53C115.817 2.29533 116.979 3.34767 117.744 4.687C118.537 6.02633 118.933 7.54333 118.933 9.238ZM108.355 13.379C109.941 13.379 111.116 13.0237 111.881 12.313C112.647 11.575 113.029 10.55 113.029 9.238C113.029 6.45 111.471 5.056 108.355 5.056H103.804V13.379H108.355ZM2.548 39.202C2.86867 38.7773 3.28467 38.4307 3.796 38.162C4.30733 37.8933 4.862 37.759 5.46 37.759C6.30933 37.759 6.98967 38.0147 7.501 38.526C8.021 39.0373 8.281 39.7307 8.281 40.606C8.281 40.8573 8.255 41.126 8.203 41.412C8.073 42.1313 7.80867 42.7727 7.41 43.336C7.02 43.8993 6.539 44.337 5.967 44.649C5.40367 44.961 4.80567 45.117 4.173 45.117C3.55767 45.117 3.042 44.9827 2.626 44.714C2.21 44.4453 1.91967 44.103 1.755 43.687L1.521 45H0.338L2.041 35.38H3.224L2.548 39.202ZM6.994 41.412C7.02867 41.23 7.046 41.0307 7.046 40.814C7.046 40.1813 6.85967 39.6873 6.487 39.332C6.11433 38.968 5.63333 38.786 5.044 38.786C4.61067 38.786 4.19033 38.8943 3.783 39.111C3.37567 39.319 3.02467 39.6267 2.73 40.034C2.444 40.4327 2.25333 40.8963 2.158 41.425C2.12333 41.607 2.106 41.8063 2.106 42.023C2.106 42.6557 2.29233 43.1583 2.665 43.531C3.04633 43.895 3.52733 44.077 4.108 44.077C4.55 44.077 4.97033 43.973 5.369 43.765C5.77633 43.5483 6.123 43.2407 6.409 42.842C6.70367 42.4347 6.89867 41.958 6.994 41.412ZM10.5922 37.876L11.8012 43.622L15.0382 37.876H16.2602L10.1242 48.354H8.88916L10.9042 44.922L9.27916 37.876H10.5922ZM26.7294 38.591C26.5994 39.345 26.2311 39.9733 25.6244 40.476C25.0178 40.97 24.1901 41.217 23.1414 41.217H21.3994L20.7234 45H19.5404L21.1524 35.939H24.0774C24.9788 35.939 25.6548 36.134 26.1054 36.524C26.5561 36.9053 26.7814 37.4167 26.7814 38.058C26.7814 38.1707 26.7641 38.3483 26.7294 38.591ZM23.3104 40.281C23.9604 40.281 24.4674 40.1337 24.8314 39.839C25.1954 39.5357 25.4251 39.1197 25.5204 38.591C25.5464 38.435 25.5594 38.292 25.5594 38.162C25.5594 37.304 25.0091 36.875 23.9084 36.875H22.1664L21.5684 40.281H23.3104ZM28.5377 37.876L29.7467 43.622L32.9837 37.876H34.2057L28.0697 48.354H26.8347L28.8497 44.922L27.2247 37.876H28.5377ZM36.0839 39.228C36.3699 38.76 36.7296 38.396 37.1629 38.136C37.5963 37.876 38.0903 37.746 38.6449 37.746L38.4239 38.968H38.1119C37.4966 38.968 36.9809 39.1327 36.5649 39.462C36.1576 39.7913 35.8846 40.346 35.7459 41.126L35.0569 45H33.8739L35.1349 37.876H36.3179L36.0839 39.228ZM38.6455 41.412C38.7755 40.684 39.0355 40.047 39.4255 39.501C39.8242 38.9463 40.3052 38.5173 40.8685 38.214C41.4405 37.9107 42.0472 37.759 42.6885 37.759C43.3125 37.759 43.8282 37.8933 44.2355 38.162C44.6429 38.4307 44.9245 38.7687 45.0805 39.176L45.3145 37.876H46.5105L45.2495 45H44.0535L44.3005 43.674C43.9885 44.09 43.5769 44.4367 43.0655 44.714C42.5542 44.9827 41.9909 45.117 41.3755 45.117C40.8209 45.117 40.3312 45 39.9065 44.766C39.4819 44.5233 39.1525 44.181 38.9185 43.739C38.6845 43.297 38.5675 42.7857 38.5675 42.205C38.5675 41.945 38.5935 41.6807 38.6455 41.412ZM44.6905 41.425C44.7252 41.243 44.7425 41.048 44.7425 40.84C44.7425 40.2073 44.5519 39.709 44.1705 39.345C43.7979 38.9723 43.3212 38.786 42.7405 38.786C42.2985 38.786 41.8739 38.89 41.4665 39.098C41.0679 39.306 40.7255 39.6093 40.4395 40.008C40.1535 40.4067 39.9629 40.8747 39.8675 41.412C39.8329 41.594 39.8155 41.7933 39.8155 42.01C39.8155 42.6513 40.0019 43.1583 40.3745 43.531C40.7472 43.895 41.2239 44.077 41.8045 44.077C42.2465 44.077 42.6669 43.973 43.0655 43.765C43.4729 43.5483 43.8195 43.2407 44.1055 42.842C44.4002 42.4347 44.5952 41.9623 44.6905 41.425ZM49.8747 35.38L48.1717 45H46.9887L48.6917 35.38H49.8747ZM51.9949 36.719C51.8043 36.719 51.6439 36.6583 51.5139 36.537C51.3926 36.407 51.3319 36.2467 51.3319 36.056C51.3319 35.796 51.4273 35.575 51.6179 35.393C51.8086 35.2023 52.0296 35.107 52.2809 35.107C52.4803 35.107 52.6406 35.1677 52.7619 35.289C52.8833 35.4103 52.9439 35.5707 52.9439 35.77C52.9439 36.03 52.8486 36.2553 52.6579 36.446C52.4673 36.628 52.2463 36.719 51.9949 36.719ZM52.3719 37.876L51.1109 45H49.9279L51.1889 37.876H52.3719ZM57.6251 37.746C58.3618 37.746 58.9511 37.9453 59.3931 38.344C59.8351 38.734 60.0561 39.306 60.0561 40.06C60.0561 40.3373 60.0345 40.5843 59.9911 40.801L59.2501 45H58.0801L58.7951 40.97C58.8298 40.788 58.8471 40.5973 58.8471 40.398C58.8471 39.8693 58.6998 39.4663 58.4051 39.189C58.1191 38.9117 57.7161 38.773 57.1961 38.773C56.5721 38.773 56.0391 38.968 55.5971 39.358C55.1638 39.748 54.8821 40.3157 54.7521 41.061V41.035L54.0501 45H52.8671L54.1281 37.876H55.3111L55.1291 38.903C55.4238 38.5303 55.7921 38.2443 56.2341 38.045C56.6761 37.8457 57.1398 37.746 57.6251 37.746ZM63.7826 41.438L66.5126 45H64.9006L62.6646 41.867L62.1056 45H60.9226L62.6256 35.38H63.8086L62.8076 41.022L66.1096 37.876H67.7476L63.7826 41.438ZM73.7601 35.939L72.1481 45H70.9651L72.5771 35.939H73.7601ZM78.6623 37.746C79.399 37.746 79.9883 37.9453 80.4303 38.344C80.8723 38.734 81.0933 39.306 81.0933 40.06C81.0933 40.3373 81.0716 40.5843 81.0283 40.801L80.2873 45H79.1173L79.8323 40.97C79.867 40.788 79.8843 40.5973 79.8843 40.398C79.8843 39.8693 79.737 39.4663 79.4423 39.189C79.1563 38.9117 78.7533 38.773 78.2333 38.773C77.6093 38.773 77.0763 38.968 76.6343 39.358C76.201 39.748 75.9193 40.3157 75.7893 41.061V41.035L75.0873 45H73.9043L75.1653 37.876H76.3483L76.1663 38.903C76.461 38.5303 76.8293 38.2443 77.2713 38.045C77.7133 37.8457 78.177 37.746 78.6623 37.746ZM86.7177 37.746C87.4544 37.746 88.0437 37.9453 88.4857 38.344C88.9277 38.734 89.1487 39.306 89.1487 40.06C89.1487 40.3373 89.1271 40.5843 89.0837 40.801L88.3427 45H87.1727L87.8877 40.97C87.9224 40.788 87.9397 40.5973 87.9397 40.398C87.9397 39.8693 87.7924 39.4663 87.4977 39.189C87.2117 38.9117 86.8087 38.773 86.2887 38.773C85.6647 38.773 85.1317 38.968 84.6897 39.358C84.2564 39.748 83.9747 40.3157 83.8447 41.061V41.035L83.1427 45H81.9597L83.2207 37.876H84.4037L84.2217 38.903C84.5164 38.5303 84.8847 38.2443 85.3267 38.045C85.7687 37.8457 86.2324 37.746 86.7177 37.746ZM93.1481 45.117C92.5501 45.117 92.0215 44.9957 91.5621 44.753C91.1115 44.5017 90.7605 44.155 90.5091 43.713C90.2578 43.2623 90.1321 42.7423 90.1321 42.153C90.1321 41.347 90.3185 40.6103 90.6911 39.943C91.0638 39.267 91.5751 38.734 92.2251 38.344C92.8838 37.954 93.6161 37.759 94.4221 37.759C95.0201 37.759 95.5488 37.8847 96.0081 38.136C96.4761 38.3787 96.8358 38.7253 97.0871 39.176C97.3471 39.618 97.4771 40.138 97.4771 40.736C97.4771 41.542 97.2865 42.2787 96.9051 42.946C96.5238 43.6133 96.0038 44.142 95.3451 44.532C94.6865 44.922 93.9541 45.117 93.1481 45.117ZM93.2911 44.116C93.8545 44.116 94.3615 43.9643 94.8121 43.661C95.2628 43.349 95.6138 42.9417 95.8651 42.439C96.1251 41.9277 96.2551 41.3817 96.2551 40.801C96.2551 40.1423 96.0645 39.6397 95.6831 39.293C95.3018 38.9377 94.8251 38.76 94.2531 38.76C93.6898 38.76 93.1871 38.916 92.7451 39.228C92.3031 39.5313 91.9608 39.9387 91.7181 40.45C91.4755 40.9613 91.3541 41.5117 91.3541 42.101C91.3541 42.7423 91.5361 43.2407 91.9001 43.596C92.2641 43.9427 92.7278 44.116 93.2911 44.116ZM100.918 43.882L104.194 37.876H105.468L101.412 45H100.021L98.4866 37.876H99.7606L100.918 43.882ZM105.28 41.412C105.41 40.684 105.67 40.047 106.06 39.501C106.458 38.9463 106.939 38.5173 107.503 38.214C108.075 37.9107 108.681 37.759 109.323 37.759C109.947 37.759 110.462 37.8933 110.87 38.162C111.277 38.4307 111.559 38.7687 111.715 39.176L111.949 37.876H113.145L111.884 45H110.688L110.935 43.674C110.623 44.09 110.211 44.4367 109.7 44.714C109.188 44.9827 108.625 45.117 108.01 45.117C107.455 45.117 106.965 45 106.541 44.766C106.116 44.5233 105.787 44.181 105.553 43.739C105.319 43.297 105.202 42.7857 105.202 42.205C105.202 41.945 105.228 41.6807 105.28 41.412ZM111.325 41.425C111.359 41.243 111.377 41.048 111.377 40.84C111.377 40.2073 111.186 39.709 110.805 39.345C110.432 38.9723 109.955 38.786 109.375 38.786C108.933 38.786 108.508 38.89 108.101 39.098C107.702 39.306 107.36 39.6093 107.074 40.008C106.788 40.4067 106.597 40.8747 106.502 41.412C106.467 41.594 106.45 41.7933 106.45 42.01C106.45 42.6513 106.636 43.1583 107.009 43.531C107.381 43.895 107.858 44.077 108.439 44.077C108.881 44.077 109.301 43.973 109.7 43.765C110.107 43.5483 110.454 43.2407 110.74 42.842C111.034 42.4347 111.229 41.9623 111.325 41.425ZM115.417 43.05C115.391 43.18 115.378 43.2927 115.378 43.388C115.378 43.6047 115.443 43.7607 115.573 43.856C115.712 43.9513 115.933 43.999 116.236 43.999H117.107L116.925 45H115.859C115.296 45 114.871 44.8917 114.585 44.675C114.308 44.4583 114.169 44.103 114.169 43.609C114.169 43.4183 114.186 43.232 114.221 43.05L114.962 38.851H114.052L114.221 37.876H115.144L115.456 36.082H116.652L116.34 37.876H118.186L118.017 38.851H116.158L115.417 43.05ZM120.165 36.719C119.975 36.719 119.814 36.6583 119.684 36.537C119.563 36.407 119.502 36.2467 119.502 36.056C119.502 35.796 119.598 35.575 119.788 35.393C119.979 35.2023 120.2 35.107 120.451 35.107C120.651 35.107 120.811 35.1677 120.932 35.289C121.054 35.4103 121.114 35.5707 121.114 35.77C121.114 36.03 121.019 36.2553 120.828 36.446C120.638 36.628 120.417 36.719 120.165 36.719ZM120.542 37.876L119.281 45H118.098L119.359 37.876H120.542ZM124.17 45.117C123.572 45.117 123.044 44.9957 122.584 44.753C122.134 44.5017 121.783 44.155 121.531 43.713C121.28 43.2623 121.154 42.7423 121.154 42.153C121.154 41.347 121.341 40.6103 121.713 39.943C122.086 39.267 122.597 38.734 123.247 38.344C123.906 37.954 124.638 37.759 125.444 37.759C126.042 37.759 126.571 37.8847 127.03 38.136C127.498 38.3787 127.858 38.7253 128.109 39.176C128.369 39.618 128.499 40.138 128.499 40.736C128.499 41.542 128.309 42.2787 127.927 42.946C127.546 43.6133 127.026 44.142 126.367 44.532C125.709 44.922 124.976 45.117 124.17 45.117ZM124.313 44.116C124.877 44.116 125.384 43.9643 125.834 43.661C126.285 43.349 126.636 42.9417 126.887 42.439C127.147 41.9277 127.277 41.3817 127.277 40.801C127.277 40.1423 127.087 39.6397 126.705 39.293C126.324 38.9377 125.847 38.76 125.275 38.76C124.712 38.76 124.209 38.916 123.767 39.228C123.325 39.5313 122.983 39.9387 122.74 40.45C122.498 40.9613 122.376 41.5117 122.376 42.101C122.376 42.7423 122.558 43.2407 122.922 43.596C123.286 43.9427 123.75 44.116 124.313 44.116ZM133.851 37.746C134.588 37.746 135.177 37.9453 135.619 38.344C136.061 38.734 136.282 39.306 136.282 40.06C136.282 40.3373 136.26 40.5843 136.217 40.801L135.476 45H134.306L135.021 40.97C135.056 40.788 135.073 40.5973 135.073 40.398C135.073 39.8693 134.926 39.4663 134.631 39.189C134.345 38.9117 133.942 38.773 133.422 38.773C132.798 38.773 132.265 38.968 131.823 39.358C131.39 39.748 131.108 40.3157 130.978 41.061V41.035L130.276 45H129.093L130.354 37.876H131.537L131.355 38.903C131.65 38.5303 132.018 38.2443 132.46 38.045C132.902 37.8457 133.366 37.746 133.851 37.746Z" fill="white"/>
</svg>
