<svg width="35" height="35" viewBox="0 0 35 35" fill="none" xmlns="http://www.w3.org/2000/svg">
<rect x="2" y="2" width="30.474" height="30.474" rx="15.237" fill="#FFABAA"/>
<rect x="2" y="2" width="30.474" height="30.474" rx="15.237" stroke="#FFDFDF" stroke-width="4"/>
<path fill-rule="evenodd" clip-rule="evenodd" d="M17.237 26.474C18.45 26.474 19.6512 26.2351 20.7718 25.7709C21.8925 25.3067 22.9108 24.6263 23.7685 23.7685C24.6263 22.9108 25.3067 21.8925 25.7709 20.7718C26.2351 19.6512 26.474 18.45 26.474 17.237C26.474 16.024 26.2351 14.8228 25.7709 13.7022C25.3067 12.5815 24.6263 11.5632 23.7685 10.7055C22.9108 9.84772 21.8925 9.16733 20.7718 8.70312C19.6512 8.23892 18.45 8 17.237 8C14.7872 8 12.4377 8.97318 10.7055 10.7055C8.97318 12.4377 8 14.7872 8 17.237C8 19.6868 8.97318 22.0363 10.7055 23.7685C12.4377 25.5008 14.7872 26.474 17.237 26.474ZM20.227 9.503C20.587 9.89 20.912 10.341 21.197 10.838C21.72 11.743 22.128 12.828 22.392 14.028C22.8073 14.132 23.196 14.248 23.558 14.376C24.226 14.613 24.813 14.893 25.278 15.216C24.9532 13.9297 24.3252 12.7398 23.4465 11.7459C22.5678 10.752 21.4638 9.98293 20.227 9.503ZM25.398 18.699C24.915 19.058 24.285 19.367 23.558 19.624C23.226 19.7413 22.8707 19.8487 22.492 19.946C22.238 21.346 21.792 22.606 21.198 23.636C20.9251 24.1158 20.5994 24.5636 20.227 24.971C21.5544 24.4568 22.7273 23.6098 23.6329 22.5114C24.5384 21.413 25.1463 20.1001 25.398 18.699ZM14.248 24.971C13.8752 24.5637 13.5492 24.1159 13.276 23.636C12.683 22.606 12.236 21.346 11.982 19.946C11.6222 19.8539 11.2666 19.7465 10.916 19.624C10.189 19.367 9.559 19.058 9.076 18.699C9.3277 20.1001 9.93555 21.413 10.8411 22.5114C11.7467 23.6098 12.9206 24.4568 14.248 24.971ZM9.195 15.215C9.66 14.893 10.247 14.613 10.915 14.376C11.277 14.2487 11.6657 14.1327 12.081 14.028C12.345 12.828 12.753 11.743 13.275 10.838C13.5479 10.3582 13.8736 9.91039 14.246 9.503C13.0097 9.9831 11.9062 10.7521 11.0278 11.7459C10.1495 12.7396 9.5217 13.9291 9.197 15.215M20.377 11.31C20.786 12.02 21.123 12.864 21.366 13.806C20.1593 13.5886 18.9369 13.4702 17.711 13.452V9.042C18.689 9.232 19.629 10.012 20.377 11.31ZM21.581 14.814C20.3066 14.5562 19.0111 14.4172 17.711 14.399V19.601C19.158 19.573 20.503 19.418 21.656 19.171C21.7407 18.5497 21.7833 17.905 21.784 17.237C21.784 16.392 21.713 15.579 21.581 14.814ZM16.763 9.041V13.451C15.5374 13.4696 14.3153 13.5883 13.109 13.806C13.351 12.864 13.689 12.019 14.097 11.31C14.845 10.013 15.785 9.232 16.763 9.041ZM16.763 14.399C15.4629 14.4172 14.1674 14.5562 12.893 14.814C12.7567 15.6144 12.6888 16.425 12.69 17.237C12.69 17.904 12.734 18.551 12.818 19.17C13.971 19.418 15.316 19.573 16.763 19.6V14.399ZM11.232 15.269C11.442 15.1957 11.663 15.1257 11.895 15.059C11.7131 16.3397 11.6923 17.6381 11.833 18.924C11.623 18.862 11.4227 18.7977 11.232 18.731C10.472 18.462 9.892 18.154 9.51 17.835C9.125 17.514 8.995 17.23 8.995 17C8.995 16.77 9.125 16.486 9.51 16.165C9.892 15.846 10.472 15.538 11.232 15.27M14.097 23.165C13.618 22.333 13.237 21.315 12.992 20.173C14.13 20.392 15.41 20.524 16.763 20.549V25.434C15.785 25.243 14.845 24.463 14.097 23.165ZM17.711 25.433V20.547C18.9764 20.5284 20.2379 20.4026 21.482 20.171C21.238 21.314 20.856 22.331 20.377 23.163C19.629 24.46 18.689 25.242 17.711 25.433ZM22.731 17.237C22.731 17.813 22.701 18.3753 22.641 18.924C22.851 18.8627 23.0513 18.7983 23.242 18.731C24.002 18.462 24.582 18.154 24.964 17.835C25.349 17.514 25.479 17.23 25.479 17C25.479 16.77 25.349 16.486 24.964 16.165C24.582 15.846 24.002 15.538 23.242 15.27C23.032 15.196 22.811 15.1257 22.579 15.059C22.679 15.759 22.732 16.488 22.732 17.237" fill="#B30100"/>
</svg>
