<svg width="150" height="149" viewBox="0 0 150 149" fill="none" xmlns="http://www.w3.org/2000/svg">
<g clip-path="url(#clip0_796_28841)">
<path d="M88.9709 32.3477C80.2248 32.4097 71.7357 35.3119 64.7822 40.6172C46.9961 54.1613 43.5378 79.6954 57.0819 97.4815C69.7588 114.131 92.9089 118.143 110.408 107.484L113.748 111.872C113.423 112.628 113.27 113.377 113.299 114.068C113.328 114.758 113.539 115.374 113.916 115.871L138.165 147.712C138.508 148.163 138.982 148.508 139.558 148.727C140.135 148.946 140.804 149.035 141.527 148.988C142.25 148.941 143.013 148.76 143.771 148.455C144.53 148.15 145.27 147.727 145.948 147.21C147.319 146.167 148.358 144.804 148.838 143.422C149.317 142.041 149.197 140.753 148.504 139.842L124.257 107.998C123.878 107.501 123.341 107.133 122.682 106.921C122.024 106.709 121.26 106.658 120.444 106.77L117.104 102.382C132.033 88.3493 134.324 64.9667 121.647 48.3175C114.875 39.4237 105.105 34.1133 94.8057 32.7187C92.872 32.4567 90.9221 32.3332 88.9709 32.3491M90.3238 41.3368C90.3134 41.5782 90.2836 41.7987 90.2836 42.0505C90.2826 44.6759 90.8478 46.7043 91.9792 48.1357C93.1126 49.5582 94.7243 50.2689 96.8142 50.2679C98.8943 50.2679 100.5 49.5572 101.633 48.1357C102.384 47.1881 102.864 45.9514 103.117 44.4777C104.677 45.2332 106.185 46.1167 107.62 47.1374H106.909V49.9595H111.039C113.04 51.8581 114.786 54.007 116.236 56.353C115.636 56.6938 115.111 57.1467 114.661 57.7119C113.529 59.1344 112.963 61.1618 112.963 63.7941C112.963 66.4215 113.529 68.4499 114.661 69.8793C115.794 71.3017 117.404 72.013 119.492 72.013C119.991 72.012 120.463 71.9692 120.908 71.8848C121.133 78.5492 119.235 85.1129 115.488 90.629H114.386V77.599H110.5L106.817 78.3648V81.1437L110.521 80.3808V90.6275H106.909V93.4511H113.323C111.873 95.1343 110.251 96.6614 108.484 98.0075C107.848 98.4917 107.198 98.9387 106.539 99.3664C105.838 99.1532 105.108 99.0492 104.374 99.0579C102.287 99.0569 100.676 99.7711 99.5439 101.201C99.1118 101.741 98.7885 102.4 98.5218 103.118C97.4788 103.435 96.4283 103.696 95.3704 103.9C95.0873 102.843 94.6612 101.935 94.0741 101.201C92.9417 99.7711 91.3345 99.0569 89.2525 99.0579C87.1645 99.0569 85.5543 99.7711 84.4219 101.201C83.8497 101.923 83.4221 102.8 83.139 103.833C80.8852 103.39 78.6871 102.699 76.5845 101.774V99.3455H72.7001L72.2531 99.4394C69.783 97.836 67.5492 95.8951 65.6166 93.6731C65.9295 93.7088 66.2335 93.7595 66.5702 93.7595C68.6522 93.7595 70.26 93.0473 71.3934 91.6228C72.5258 90.1924 73.0919 88.165 73.0919 85.5407C73.0919 82.9083 72.5258 80.8809 71.3934 79.4585C70.26 78.0281 68.6527 77.3129 66.5717 77.3129C64.4827 77.3129 62.8725 78.0281 61.7411 79.4585C60.7339 80.722 60.202 82.4891 60.0902 84.7092C58.416 80.5856 57.6365 76.1534 57.8031 71.706H65.0743V68.881H61.464V58.1187C63.0798 55.0754 65.1849 52.3184 67.6952 49.958H72.633V47.1359H71.1952C72.5315 46.1845 73.9393 45.3377 75.4059 44.6029C75.6667 46.0184 76.133 47.2134 76.8616 48.1342C77.994 49.5567 79.6042 50.2674 81.6922 50.2664C83.7743 50.2664 85.382 49.5557 86.5154 48.1342C87.6468 46.7038 88.212 44.6754 88.211 42.049C88.211 41.8002 88.1812 41.5827 88.1707 41.3443C88.8889 41.3175 89.6066 41.316 90.3238 41.3368ZM94.3766 41.7406C96.0156 42.0043 97.6382 42.3843 99.2191 42.9028C99.1699 44.4301 98.9971 45.5669 98.6827 46.2553C98.3072 47.0768 97.6844 47.4875 96.8142 47.4875C95.9351 47.4875 95.3083 47.0773 94.9339 46.2568C94.5594 45.4353 94.3721 44.0218 94.3721 42.0163C94.3721 41.9164 94.3751 41.8375 94.3766 41.7406ZM84.1209 41.7808C84.1209 41.8643 84.1269 41.9313 84.1269 42.0163C84.1269 44.0208 83.9396 45.4343 83.5652 46.2568C83.1897 47.0773 82.5659 47.4875 81.6937 47.4875C80.8166 47.4875 80.1908 47.0773 79.8163 46.2568C79.5079 45.5803 79.3336 44.4777 79.2799 42.9997C80.859 42.465 82.4769 42.0575 84.1209 41.7808ZM89.2555 55.5663C87.1675 55.5663 85.5573 56.2815 84.4249 57.7119C83.2925 59.1324 82.7263 61.1593 82.7263 63.7926C82.7263 66.42 83.2925 68.4484 84.4249 69.8778C85.5573 71.3002 87.1675 72.0115 89.2555 72.0115C91.3375 72.0115 92.9452 71.3002 94.0786 69.8778C95.211 68.4474 95.7772 66.419 95.7772 63.7926C95.7772 61.1603 95.211 59.1329 94.0786 57.7104C92.9462 56.28 91.3385 55.5653 89.2555 55.5663ZM72.7031 55.8509L69.0153 56.6168V59.3986L72.7239 58.6372V68.881H69.1122V71.706H80.1992V68.881H76.5875V55.8509H72.7031ZM102.943 55.8509L99.2549 56.6168V59.3986L102.963 58.6372V68.881H99.3547V71.706H110.44V68.881H106.826V55.8509H102.943ZM89.2555 58.3601C90.1336 58.3601 90.7564 58.7664 91.1239 59.5789C91.4984 60.3875 91.6857 61.7826 91.6857 63.7643C91.6857 65.7659 91.4984 67.1774 91.1239 67.9989C90.7494 68.8204 90.1266 69.2316 89.2555 69.2326C88.3774 69.2326 87.7511 68.8214 87.3766 67.9989C87.0021 67.1784 86.8148 65.7669 86.8148 63.7643C86.8148 61.7826 87.0021 60.3875 87.3766 59.5789C87.7511 58.7654 88.3774 58.3591 89.2555 58.3601ZM117.828 59.2362C119.287 62.2758 120.245 65.5312 120.665 68.8765C120.323 69.1184 119.913 69.2433 119.495 69.2326C118.617 69.2326 117.991 68.8214 117.616 67.9989C117.242 67.1784 117.054 65.7669 117.054 63.7643C117.054 61.7826 117.242 60.3875 117.616 59.5789C117.676 59.4478 117.755 59.3465 117.828 59.2362ZM96.8142 77.3144C94.7253 77.3144 93.1136 78.0296 91.9792 79.46C90.8478 80.8804 90.2826 82.9073 90.2836 85.5407C90.2826 88.167 90.8478 90.1944 91.9792 91.6228C93.1126 93.0463 94.7243 93.7585 96.8142 93.7595C98.8943 93.7595 100.5 93.0473 101.633 91.6228C102.765 90.1924 103.331 88.165 103.331 85.5407C103.331 82.9083 102.765 80.8809 101.633 79.4585C100.5 78.0281 98.8943 77.3144 96.8142 77.3144ZM80.2603 77.5975L76.5771 78.3633V81.1422L80.2812 80.3793V90.626H76.6679V93.4496H87.755V90.626H84.1477V77.599L80.2603 77.5975ZM66.5717 80.1007C67.4498 80.1027 68.0736 80.5109 68.4431 81.3255C68.8176 82.132 69.0049 83.5262 69.0049 85.5079C69.0049 87.5094 68.8176 88.9205 68.4431 89.741C68.0667 90.5634 67.4429 90.9752 66.5717 90.9762C65.6926 90.9762 65.0658 90.5644 64.6913 89.741C64.3168 88.9215 64.1296 87.5104 64.1296 85.5079C64.1296 83.5262 64.3168 82.132 64.6913 81.3255C65.0668 80.5109 65.6936 80.1027 66.5717 80.1007ZM96.8142 80.1007C97.6913 80.1027 98.3142 80.5109 98.6827 81.3255C99.0562 82.132 99.2429 83.5262 99.2429 85.5079C99.2429 87.5094 99.0562 88.9205 98.6827 89.741C98.3072 90.5634 97.6844 90.9752 96.8142 90.9762C95.9351 90.9762 95.3083 90.5644 94.9339 89.741C94.5594 88.9215 94.3721 87.5104 94.3721 85.5079C94.3721 83.5262 94.5594 82.132 94.9339 81.3255C95.3093 80.5109 95.9361 80.1027 96.8142 80.1007ZM89.2525 101.847C90.1306 101.847 90.7534 102.254 91.1209 103.068C91.2774 103.401 91.3906 103.863 91.4815 104.4C89.9915 104.501 88.5015 104.476 87.0175 104.365C87.1084 103.844 87.2216 103.394 87.3736 103.068C87.7481 102.253 88.3744 101.846 89.2525 101.847Z" fill="#7E81FF"/>
<path d="M3.05431 18.625C1.43766 18.625 0.126465 20.0301 0.126465 21.7614V127.239C0.126465 128.97 1.43766 130.374 3.05431 130.375H117.461C115.889 128.307 114.322 126.236 112.744 124.174L112.686 124.099H91.24C90.3765 122.49 89.4824 120.897 88.558 119.322C87.652 119.307 86.7476 119.277 85.8462 119.212C86.825 120.82 87.768 122.449 88.6742 124.099H81.768C80.5336 121.984 79.2113 119.921 77.8046 117.916C77.1262 117.745 76.4517 117.558 75.7812 117.355C75.2329 117.194 74.695 117.005 74.1556 116.822C75.8542 118.982 77.5022 121.435 79.1203 124.098H53.245C54.5845 121.149 55.8703 118.15 57.0311 115.015C58.0532 115.199 59.0977 115.313 60.169 115.313C62.6826 115.313 65.0756 114.77 67.2525 113.814C66.4082 113.358 65.5784 112.876 64.7642 112.368C63.3084 112.82 61.7693 113.078 60.169 113.078C58.5792 113.078 57.0445 112.835 55.5977 112.388C54.1803 116.366 52.5738 120.274 50.7835 124.099H44.1828C46.458 119.416 48.5336 114.609 50.2858 109.524C46.8052 106.659 44.5791 102.321 44.5791 97.4877C44.5791 94.9607 45.1945 92.5752 46.2762 90.4624C46.1779 90.218 46.0676 89.9796 45.9738 89.7352C45.7205 89.0886 45.497 88.4315 45.2735 87.7759C43.3641 90.6551 42.3452 94.033 42.3441 97.4877C42.3441 102.43 44.4033 106.922 47.6962 110.165C45.9618 114.998 43.9265 119.596 41.7004 124.098H35.2517L39.3492 117.002L34.9954 114.489L36.5465 111.799L30.5165 108.319L21.4052 124.098H5.98365V71.9968L17.4328 78.824L24.552 66.8876L5.98514 55.8139V48.9227C21.5139 58.1785 35.0193 66.9546 43.6881 81.8189C43.3553 80.074 43.1235 78.3114 42.9938 76.5398C33.8198 63.2863 20.6259 55.0034 5.98514 46.3122V39.3479C19.7498 47.4684 33.048 55.3252 43.25 67.1543C43.3692 66.1947 43.5173 65.2392 43.6941 64.2875C33.118 52.6045 19.6276 44.7864 5.98514 36.7404V34.568C20.243 44.0399 33.2581 50.5557 46.3224 55.2596C47.3764 52.641 48.676 50.128 50.2039 47.7545C53.3567 42.769 57.5228 38.4822 62.3176 35.0716C53.3955 32.8739 44.7624 29.3694 36.4422 24.9039H54.8959C59.649 26.5682 64.5511 28.1372 69.4576 29.575C70.0492 29.7479 70.6288 29.8998 71.2188 30.0697C72.381 29.575 73.5656 29.1414 74.7635 28.7436C73.205 28.3085 71.6569 27.8898 70.0864 27.4294C67.3435 26.6247 64.6115 25.7828 61.8914 24.9039H83.4264C85.4975 25.4403 87.4494 25.9126 89.4311 26.3998C95.482 26.4266 101.53 27.6067 107.128 29.9118C107.727 30.1531 108.314 30.4213 108.901 30.6895C109.631 30.8251 110.467 30.992 111.094 31.1023C112.13 31.2878 113.168 31.4547 114.21 31.6029C114.985 31.7087 115.627 31.7295 115.394 31.737L115.403 31.9724C117.537 29.6323 119.653 27.2761 121.751 24.9039H129.695C126.157 28.9708 122.562 32.9892 118.914 36.958C119.486 37.4328 120.047 37.9205 120.597 38.4211C124.798 33.8394 128.892 29.2994 132.66 24.9039H143.269V31.4375C143.207 31.433 143.147 31.4196 143.085 31.4196H143.065C142.723 31.4209 142.384 31.4896 142.068 31.6218C141.752 31.754 141.465 31.9472 141.224 32.1902C140.983 32.4332 140.792 32.7214 140.662 33.0382C140.532 33.3551 140.466 33.6944 140.467 34.0368C140.469 34.3792 140.537 34.7181 140.67 35.0339C140.802 35.3498 140.995 35.6365 141.238 35.8778C141.481 36.119 141.769 36.31 142.086 36.4399C142.403 36.5697 142.742 36.6359 143.085 36.6346C143.147 36.6346 143.207 36.6212 143.268 36.6168V41.8675C143.208 41.863 143.149 41.8496 143.085 41.8496H143.065C142.374 41.8522 141.711 42.1294 141.224 42.6202C140.737 43.111 140.465 43.7753 140.467 44.4668C140.47 45.1584 140.747 45.8206 141.238 46.3078C141.729 46.7949 142.393 47.0672 143.085 47.0646C143.147 47.0646 143.207 47.0512 143.268 47.0468V52.2975C143.208 52.293 143.149 52.2796 143.085 52.2796C142.393 52.2796 141.73 52.5543 141.241 53.0434C140.752 53.5324 140.477 54.1956 140.477 54.8871C140.477 55.5787 140.752 56.2419 141.241 56.7309C141.73 57.2199 142.393 57.4946 143.085 57.4946C143.147 57.4946 143.207 57.4812 143.268 57.4768V59.4063C142.089 59.0323 140.887 58.6583 139.738 58.2828C139.444 57.982 139.082 57.7565 138.683 57.6258C138.283 57.495 137.858 57.4628 137.443 57.5319C136.488 57.2145 135.57 56.8986 134.636 56.5813C134.96 56.2024 135.168 55.7388 135.237 55.2452C135.305 54.7516 135.231 54.2487 135.022 53.7961C134.814 53.3435 134.48 52.9601 134.06 52.6914C133.641 52.4226 133.153 52.2797 132.655 52.2796C132.139 52.2796 131.662 52.4346 131.258 52.6924C132.642 55.5247 133.721 58.4954 134.48 61.5549C136.217 68.4029 136.266 75.6205 134.791 82.5132C137.086 83.8542 139.1 85.0254 140.519 85.7227C140.452 86.0977 140.469 86.4827 140.567 86.8507C140.666 87.2186 140.844 87.5606 141.088 87.8524C141.333 88.1443 141.639 88.379 141.984 88.54C142.329 88.7011 142.705 88.7846 143.086 88.7846C143.149 88.7846 143.205 88.7623 143.268 88.7578V94.0175C143.208 94.013 143.149 93.9996 143.085 93.9996H143.065C142.374 94.0022 141.711 94.2794 141.224 94.7702C140.737 95.261 140.465 95.9253 140.467 96.6168C140.47 97.3084 140.747 97.9706 141.238 98.4578C141.729 98.9449 142.393 99.2172 143.085 99.2146C143.147 99.2146 143.207 99.2012 143.268 99.1967V104.448C143.208 104.443 143.149 104.43 143.085 104.43C142.393 104.43 141.73 104.704 141.241 105.193C140.752 105.682 140.477 106.346 140.477 107.037C140.477 107.729 140.752 108.392 141.241 108.881C141.73 109.37 142.393 109.645 143.085 109.645C143.147 109.645 143.207 109.631 143.268 109.627V123.119C144.897 125.264 146.528 127.409 148.161 129.553C148.468 129.251 148.712 128.891 148.878 128.494C149.044 128.097 149.128 127.67 149.126 127.24V21.7629C149.126 20.0316 147.815 18.628 146.199 18.6265L3.05431 18.625ZM92.6614 24.9024H118.73C117.397 26.3983 116.093 27.8779 114.704 29.4037C114.63 29.3962 114.59 29.3977 114.514 29.3873C113.5 29.242 112.488 29.0791 111.48 28.8986C108.952 28.453 105.501 27.7811 101.458 26.9109C98.5192 26.2719 95.5867 25.6024 92.6614 24.9024ZM140.201 27.644C138.477 28.0701 137.016 28.8181 135.524 29.946C135.669 30.263 135.877 30.5476 136.134 30.7831C136.391 31.0186 136.692 31.2002 137.021 31.3171C137.349 31.434 137.697 31.4839 138.045 31.4638C138.393 31.4437 138.734 31.3541 139.047 31.2001C139.359 31.0462 139.638 30.8311 139.866 30.5676C140.094 30.3041 140.268 29.9975 140.375 29.666C140.483 29.3344 140.523 28.9847 140.493 28.6374C140.463 28.2901 140.364 27.9523 140.201 27.644ZM133.613 31.6014C132.447 32.6926 131.32 33.8242 130.233 34.9941C130.394 35.3953 130.651 35.7503 130.983 36.0274C131.314 36.3044 131.709 36.4947 132.132 36.5812C132.556 36.6677 132.994 36.6477 133.407 36.523C133.821 36.3983 134.197 36.1728 134.502 35.8667C134.807 35.5606 135.031 35.1836 135.154 34.7695C135.277 34.3554 135.295 33.9172 135.207 33.4943C135.119 33.0713 134.927 32.677 134.649 32.3466C134.37 32.0162 134.014 31.7601 133.613 31.6014ZM137.85 36.6331C137.508 36.6358 137.169 36.7058 136.854 36.8393C136.538 36.9728 136.253 37.1671 136.012 37.4111C135.772 37.6551 135.582 37.944 135.454 38.2614C135.325 38.5787 135.26 38.9183 135.263 39.2608C135.265 39.6032 135.335 39.9417 135.469 40.2571C135.602 40.5724 135.797 40.8584 136.041 41.0986C136.285 41.3389 136.574 41.5288 136.891 41.6574C137.208 41.786 137.548 41.8508 137.89 41.8481C138.582 41.8428 139.243 41.563 139.728 41.0702C140.213 40.5774 140.483 39.9121 140.478 39.2205C140.472 38.529 140.193 37.8679 139.7 37.3826C139.207 36.8974 138.542 36.6278 137.85 36.6331ZM128.493 36.8537L125.132 40.4535C125.325 40.8216 125.605 41.138 125.946 41.3763C126.287 41.6145 126.68 41.7676 127.092 41.8229C127.505 41.8782 127.924 41.8339 128.316 41.6939C128.708 41.5539 129.06 41.3222 129.344 41.0181C129.628 40.714 129.835 40.3464 129.948 39.9459C130.061 39.5454 130.077 39.1238 129.993 38.7162C129.91 38.3085 129.73 37.9268 129.469 37.6028C129.208 37.2787 128.873 37.0219 128.493 36.8537ZM132.635 41.8481C132.293 41.8508 131.954 41.9208 131.639 42.0543C131.323 42.1878 131.038 42.3821 130.797 42.6261C130.557 42.8701 130.367 43.159 130.239 43.4764C130.11 43.7937 130.045 44.1333 130.048 44.4758C130.05 44.8182 130.12 45.1567 130.254 45.4721C130.387 45.7874 130.582 46.0734 130.826 46.3136C131.07 46.5539 131.359 46.7438 131.676 46.8724C131.993 47.001 132.333 47.0658 132.675 47.0631C133.367 47.0578 134.028 46.778 134.513 46.2852C134.998 45.7924 135.268 45.1271 135.263 44.4355C135.257 43.744 134.978 43.0829 134.485 42.5976C133.992 42.1124 133.327 41.8428 132.635 41.8481ZM137.85 47.0631C137.508 47.0658 137.169 47.1358 136.854 47.2693C136.538 47.4028 136.253 47.5971 136.012 47.8411C135.527 48.3339 135.257 48.9992 135.263 49.6908C135.268 50.3823 135.548 51.0434 136.041 51.5286C136.533 52.0139 137.199 52.2835 137.89 52.2781C138.582 52.2728 139.243 51.993 139.728 51.5002C140.213 51.0074 140.483 50.3421 140.478 49.6505C140.472 48.959 140.193 48.2979 139.7 47.8126C139.207 47.3274 138.542 47.0578 137.85 47.0631ZM128.104 47.1555C128.772 48.1583 129.391 49.1909 129.981 50.2398C130.023 50.057 130.045 49.8673 130.047 49.6706C130.047 48.4608 129.222 47.4505 128.104 47.1555ZM27.24 78.0656L21.8417 87.4153L18.2195 93.6882L27.5693 99.088L31.193 92.8136L34.906 94.9592L40.3043 85.608L36.5912 83.4623L27.24 78.0656ZM134.375 84.2282C133.988 85.7589 133.526 87.2663 132.99 88.7504C133.617 88.6707 134.193 88.3654 134.611 87.8915C135.03 87.4176 135.261 86.8077 135.262 86.1756C135.262 85.3979 134.915 84.7065 134.375 84.2282ZM137.85 88.7831C137.508 88.7858 137.169 88.8558 136.854 88.9893C136.538 89.1228 136.253 89.3171 136.012 89.5611C135.772 89.8051 135.582 90.094 135.454 90.4114C135.325 90.7287 135.26 91.0683 135.263 91.4108C135.265 91.7532 135.335 92.0917 135.469 92.4071C135.602 92.7224 135.797 93.0084 136.041 93.2486C136.285 93.4889 136.574 93.6788 136.891 93.8074C137.208 93.936 137.548 94.0008 137.89 93.9981C138.582 93.9928 139.243 93.713 139.728 93.2202C140.213 92.7274 140.483 92.0621 140.478 91.3705C140.472 90.679 140.193 90.0179 139.7 89.5326C139.207 89.0474 138.542 88.7778 137.85 88.7831ZM132.635 93.9981C132.293 94.0008 131.954 94.0708 131.639 94.2043C131.323 94.3378 131.038 94.5321 130.797 94.7761C130.557 95.0201 130.367 95.309 130.239 95.6264C130.11 95.9437 130.045 96.2833 130.048 96.6258C130.05 96.9682 130.12 97.3067 130.254 97.6221C130.387 97.9374 130.582 98.2234 130.826 98.4636C131.07 98.7039 131.359 98.8938 131.676 99.0224C131.993 99.1509 132.333 99.2158 132.675 99.2131C133.367 99.2078 134.028 98.928 134.513 98.4352C134.998 97.9424 135.268 97.2771 135.263 96.5855C135.257 95.894 134.978 95.2329 134.485 94.7476C133.992 94.2624 133.327 93.9928 132.635 93.9981ZM50.6181 98.6603C50.8364 100.527 51.6006 102.288 52.8151 103.722C54.0295 105.157 55.6401 106.201 57.4453 106.724C54.8742 104.301 52.5841 101.596 50.6181 98.6603ZM137.85 99.2116C137.508 99.2143 137.169 99.2843 136.854 99.4178C136.538 99.5513 136.253 99.7456 136.012 99.9896C135.772 100.234 135.582 100.523 135.454 100.84C135.325 101.157 135.26 101.497 135.263 101.839C135.265 102.182 135.335 102.52 135.469 102.836C135.602 103.151 135.797 103.437 136.041 103.677C136.285 103.917 136.574 104.107 136.891 104.236C137.208 104.364 137.548 104.429 137.89 104.427C138.582 104.421 139.243 104.141 139.728 103.649C140.213 103.156 140.483 102.491 140.478 101.799C140.472 101.107 140.193 100.446 139.7 99.9612C139.207 99.4759 138.542 99.2063 137.85 99.2116ZM127.623 99.231C127.048 100.073 126.445 100.895 125.814 101.695C126.477 102.204 127.593 102.771 128.255 103.534L128.688 104.096C129.494 103.653 130.047 102.806 130.047 101.821C130.047 100.442 128.977 99.3264 127.623 99.231ZM132.655 104.428C131.546 104.428 130.604 105.122 130.227 106.098C130.905 106.97 131.573 107.849 132.248 108.724L134.657 108.703C134.974 108.322 135.176 107.859 135.24 107.368C135.303 106.876 135.225 106.377 135.015 105.928C134.805 105.48 134.471 105.1 134.053 104.834C133.635 104.568 133.15 104.428 132.655 104.428ZM104.27 116.879C101.411 117.846 98.4642 118.532 95.4716 118.924C96.3283 119.207 97.2387 119.364 98.1834 119.364C100.459 119.362 102.643 118.47 104.27 116.879Z" fill="#5358FF"/>
</g>
<defs>
<clipPath id="clip0_796_28841">
<rect width="149" height="149" fill="white" transform="translate(0.126465)"/>
</clipPath>
</defs>
</svg>
