<svg width="35" height="38" viewBox="0 0 35 38" fill="none" xmlns="http://www.w3.org/2000/svg">
<path d="M14.8125 5.5625H20.1875C20.1875 4.84973 19.9044 4.16615 19.4003 3.66215C18.8963 3.15815 18.2128 2.875 17.5 2.875C16.7872 2.875 16.1037 3.15815 15.5997 3.66215C15.0956 4.16615 14.8125 4.84973 14.8125 5.5625ZM12.125 5.5625C12.125 4.13696 12.6913 2.76981 13.6993 1.7618C14.7073 0.753793 16.0745 0.1875 17.5 0.1875C18.9255 0.1875 20.2927 0.753793 21.3007 1.7618C22.3087 2.76981 22.875 4.13696 22.875 5.5625H33.625C33.9814 5.5625 34.3232 5.70407 34.5752 5.95608C34.8272 6.20808 34.9688 6.54987 34.9688 6.90625C34.9688 7.26263 34.8272 7.60442 34.5752 7.85642C34.3232 8.10843 33.9814 8.25 33.625 8.25H32.1092L28.8708 32.0021C28.6512 33.6118 27.8558 35.0873 26.6319 36.1556C25.4079 37.2238 23.8384 37.8125 22.2139 37.8125H12.7861C11.1616 37.8125 9.59206 37.2238 8.36814 36.1556C7.14423 35.0873 6.34883 33.6118 6.12919 32.0021L2.89075 8.25H1.375C1.01862 8.25 0.676827 8.10843 0.424825 7.85642C0.172823 7.60442 0.03125 7.26263 0.03125 6.90625C0.03125 6.54987 0.172823 6.20808 0.424825 5.95608C0.676827 5.70407 1.01862 5.5625 1.375 5.5625H12.125ZM14.8125 14.9688C14.8125 14.6124 14.6709 14.2706 14.4189 14.0186C14.1669 13.7666 13.8251 13.625 13.4688 13.625C13.1124 13.625 12.7706 13.7666 12.5186 14.0186C12.2666 14.2706 12.125 14.6124 12.125 14.9688V28.4062C12.125 28.7626 12.2666 29.1044 12.5186 29.3564C12.7706 29.6084 13.1124 29.75 13.4688 29.75C13.8251 29.75 14.1669 29.6084 14.4189 29.3564C14.6709 29.1044 14.8125 28.7626 14.8125 28.4062V14.9688ZM21.5312 13.625C21.8876 13.625 22.2294 13.7666 22.4814 14.0186C22.7334 14.2706 22.875 14.6124 22.875 14.9688V28.4062C22.875 28.7626 22.7334 29.1044 22.4814 29.3564C22.2294 29.6084 21.8876 29.75 21.5312 29.75C21.1749 29.75 20.8331 29.6084 20.5811 29.3564C20.3291 29.1044 20.1875 28.7626 20.1875 28.4062V14.9688C20.1875 14.6124 20.3291 14.2706 20.5811 14.0186C20.8331 13.7666 21.1749 13.625 21.5312 13.625ZM8.7925 31.6393C8.92439 32.6049 9.40161 33.49 10.1358 34.1309C10.8701 34.7717 11.8116 35.1249 12.7861 35.125H22.2139C23.1889 35.1255 24.1311 34.7726 24.8658 34.1317C25.6006 33.4908 26.0782 32.6054 26.2102 31.6393L29.3976 8.25H5.60244L8.7925 31.6393Z" fill="#B30100"/>
</svg>
