<svg width="20" height="20" viewBox="0 0 20 20" fill="none" xmlns="http://www.w3.org/2000/svg">
<path d="M2.687 4.21262L4.8 16.9756C4.89665 17.5599 5.19759 18.0909 5.6492 18.474C6.10081 18.8571 6.67377 19.0675 7.266 19.0676H10.614M17.312 4.21262L15.2 16.9756C15.1033 17.5599 14.8024 18.0909 14.3508 18.474C13.8992 18.8571 13.3262 19.0675 12.734 19.0676H9.386M8.022 9.11562V14.1646M11.978 9.11562V14.1646M0.75 4.21262H19.25M12.777 4.21262V2.43262C12.777 2.03479 12.619 1.65326 12.3377 1.37196C12.0564 1.09065 11.6748 0.932617 11.277 0.932617H8.723C8.32517 0.932617 7.94364 1.09065 7.66234 1.37196C7.38104 1.65326 7.223 2.03479 7.223 2.43262V4.21262H12.777Z" stroke="black" stroke-width="1.5" stroke-linecap="round" stroke-linejoin="round"/>
</svg>
