<svg width="37" height="37" viewBox="0 0 37 37" fill="none" xmlns="http://www.w3.org/2000/svg">
<path d="M22.5469 10.9844H22.5581V10.9956H22.5469V10.9844Z" stroke="black" stroke-width="2.3125" stroke-linecap="round" stroke-linejoin="round"/>
<path d="M23.125 10.9844C23.125 11.1377 23.0641 11.2848 22.9557 11.3932C22.8473 11.5016 22.7002 11.5625 22.5469 11.5625C22.3935 11.5625 22.2465 11.5016 22.1381 11.3932C22.0297 11.2848 21.9688 11.1377 21.9688 10.9844C21.9688 10.831 22.0297 10.684 22.1381 10.5756C22.2465 10.4672 22.3935 10.4062 22.5469 10.4062C22.7002 10.4062 22.8473 10.4672 22.9557 10.5756C23.0641 10.684 23.125 10.831 23.125 10.9844ZM22.5469 18.4884H22.5584V18.5H22.5469V18.4884Z" stroke="black" stroke-width="2.3125" stroke-linecap="round" stroke-linejoin="round"/>
<path d="M23.125 18.4883C23.125 18.6416 23.0641 18.7887 22.9557 18.8971C22.8473 19.0055 22.7002 19.0664 22.5469 19.0664C22.3935 19.0664 22.2465 19.0055 22.1381 18.8971C22.0297 18.7887 21.9688 18.6416 21.9688 18.4883C21.9688 18.335 22.0297 18.1879 22.1381 18.0795C22.2465 17.9711 22.3935 17.9102 22.5469 17.9102C22.7002 17.9102 22.8473 17.9711 22.9557 18.0795C23.0641 18.1879 23.125 18.335 23.125 18.4883ZM22.5469 26.0155H22.5584V26.027H22.5469V26.0155Z" stroke="black" stroke-width="2.3125" stroke-linecap="round" stroke-linejoin="round"/>
<path d="M23.125 26.0156C23.125 26.169 23.0641 26.316 22.9557 26.4244C22.8473 26.5328 22.7002 26.5938 22.5469 26.5938C22.3935 26.5938 22.2465 26.5328 22.1381 26.4244C22.0297 26.316 21.9688 26.169 21.9688 26.0156C21.9688 25.8623 22.0297 25.7152 22.1381 25.6068C22.2465 25.4984 22.3935 25.4375 22.5469 25.4375C22.7002 25.4375 22.8473 25.4984 22.9557 25.6068C23.0641 25.7152 23.125 25.8623 23.125 26.0156ZM14.4531 10.9844H14.4647V10.9959H14.4531V10.9844Z" stroke="black" stroke-width="2.3125" stroke-linecap="round" stroke-linejoin="round"/>
<path d="M15.0312 10.9844C15.0312 11.1377 14.9703 11.2848 14.8619 11.3932C14.7535 11.5016 14.6065 11.5625 14.4531 11.5625C14.2998 11.5625 14.1527 11.5016 14.0443 11.3932C13.9359 11.2848 13.875 11.1377 13.875 10.9844C13.875 10.831 13.9359 10.684 14.0443 10.5756C14.1527 10.4672 14.2998 10.4062 14.4531 10.4062C14.6065 10.4062 14.7535 10.4672 14.8619 10.5756C14.9703 10.684 15.0312 10.831 15.0312 10.9844ZM14.4531 18.4884H14.4647V18.5H14.4531V18.4884Z" stroke="black" stroke-width="2.3125" stroke-linecap="round" stroke-linejoin="round"/>
<path d="M15.0312 18.4883C15.0312 18.6416 14.9703 18.7887 14.8619 18.8971C14.7535 19.0055 14.6065 19.0664 14.4531 19.0664C14.2998 19.0664 14.1527 19.0055 14.0443 18.8971C13.9359 18.7887 13.875 18.6416 13.875 18.4883C13.875 18.335 13.9359 18.1879 14.0443 18.0795C14.1527 17.9711 14.2998 17.9102 14.4531 17.9102C14.6065 17.9102 14.7535 17.9711 14.8619 18.0795C14.9703 18.1879 15.0312 18.335 15.0312 18.4883ZM14.4531 26.0155H14.4647V26.027H14.4531V26.0155Z" stroke="black" stroke-width="2.3125" stroke-linecap="round" stroke-linejoin="round"/>
<path d="M15.0312 26.0156C15.0312 26.169 14.9703 26.316 14.8619 26.4244C14.7535 26.5328 14.6065 26.5938 14.4531 26.5938C14.2998 26.5938 14.1527 26.5328 14.0443 26.4244C13.9359 26.316 13.875 26.169 13.875 26.0156C13.875 25.8623 13.9359 25.7152 14.0443 25.6068C14.1527 25.4984 14.2998 25.4375 14.4531 25.4375C14.6065 25.4375 14.7535 25.4984 14.8619 25.6068C14.9703 25.7152 15.0312 25.8623 15.0312 26.0156Z" stroke="black" stroke-width="2.3125" stroke-linecap="round" stroke-linejoin="round"/>
</svg>
