<svg width="19" height="19" viewBox="0 0 19 19" fill="none" xmlns="http://www.w3.org/2000/svg">
<rect width="19" height="19" rx="9.5" fill="#EBECFF"/>
<path d="M6.53916 12.9473C6.25958 12.9473 5.99833 12.851 5.81041 12.6723C5.57208 12.4477 5.45749 12.1085 5.49874 11.7419L5.66833 10.2569C5.70041 9.97728 5.86999 9.60603 6.06708 9.40436L9.82999 5.42145C10.7696 4.42686 11.7504 4.39936 12.745 5.33895C13.7396 6.27853 13.7671 7.25936 12.8275 8.25395L9.06458 12.2369C8.87208 12.4431 8.51458 12.6356 8.23499 12.6814L6.75916 12.9335C6.68124 12.9381 6.61249 12.9473 6.53916 12.9473ZM11.3012 5.33436C10.9483 5.33436 10.6412 5.55436 10.3296 5.88436L6.56666 9.87186C6.47499 9.96811 6.36958 10.1973 6.35124 10.3302L6.18166 11.8152C6.16333 11.9664 6.19999 12.0902 6.28249 12.1681C6.36499 12.246 6.48874 12.2735 6.63999 12.2506L8.11583 11.9985C8.24874 11.9756 8.46874 11.8564 8.56041 11.7602L12.3233 7.77728C12.8917 7.17228 13.0979 6.61311 12.2683 5.83395C11.9017 5.48103 11.5854 5.33436 11.3012 5.33436Z" fill="#292D32"/>
<path d="M11.9475 9.0197C11.9384 9.0197 11.9246 9.0197 11.9155 9.0197C10.4855 8.87761 9.33504 7.79136 9.11504 6.37053C9.08754 6.18262 9.21587 6.00845 9.40379 5.97636C9.5917 5.94886 9.76587 6.0772 9.79795 6.26511C9.97212 7.37428 10.8705 8.22678 11.9888 8.33678C12.1767 8.35511 12.3142 8.5247 12.2959 8.71261C12.273 8.88678 12.1217 9.0197 11.9475 9.0197Z" fill="#292D32"/>
<path d="M13.625 14.4277H5.375C5.18708 14.4277 5.03125 14.2719 5.03125 14.084C5.03125 13.8961 5.18708 13.7402 5.375 13.7402H13.625C13.8129 13.7402 13.9688 13.8961 13.9688 14.084C13.9688 14.2719 13.8129 14.4277 13.625 14.4277Z" fill="#292D32"/>
</svg>
