<svg width="14" height="14" viewBox="0 0 14 14" fill="none" xmlns="http://www.w3.org/2000/svg">
<path d="M7.00016 10.332C7.18905 10.332 7.34738 10.2681 7.47516 10.1404C7.60294 10.0126 7.66683 9.85425 7.66683 9.66536C7.66683 9.47647 7.60294 9.31814 7.47516 9.19036C7.34738 9.06259 7.18905 8.9987 7.00016 8.9987C6.81127 8.9987 6.65294 9.06259 6.52516 9.19036C6.39738 9.31814 6.3335 9.47647 6.3335 9.66536C6.3335 9.85425 6.39738 10.0126 6.52516 10.1404C6.65294 10.2681 6.81127 10.332 7.00016 10.332ZM6.3335 7.66536H7.66683V3.66536H6.3335V7.66536ZM7.00016 13.6654C6.07794 13.6654 5.21127 13.4904 4.40016 13.1404C3.58905 12.7904 2.8835 12.3154 2.2835 11.7154C1.6835 11.1154 1.2085 10.4098 0.858496 9.5987C0.508496 8.78759 0.333496 7.92092 0.333496 6.9987C0.333496 6.07648 0.508496 5.20981 0.858496 4.3987C1.2085 3.58759 1.6835 2.88203 2.2835 2.28203C2.8835 1.68203 3.58905 1.20703 4.40016 0.857031C5.21127 0.507031 6.07794 0.332031 7.00016 0.332031C7.92238 0.332031 8.78905 0.507031 9.60016 0.857031C10.4113 1.20703 11.1168 1.68203 11.7168 2.28203C12.3168 2.88203 12.7918 3.58759 13.1418 4.3987C13.4918 5.20981 13.6668 6.07648 13.6668 6.9987C13.6668 7.92092 13.4918 8.78759 13.1418 9.5987C12.7918 10.4098 12.3168 11.1154 11.7168 11.7154C11.1168 12.3154 10.4113 12.7904 9.60016 13.1404C8.78905 13.4904 7.92238 13.6654 7.00016 13.6654ZM7.00016 12.332C8.48905 12.332 9.75016 11.8154 10.7835 10.782C11.8168 9.7487 12.3335 8.48759 12.3335 6.9987C12.3335 5.50981 11.8168 4.2487 10.7835 3.21536C9.75016 2.18203 8.48905 1.66536 7.00016 1.66536C5.51127 1.66536 4.25016 2.18203 3.21683 3.21536C2.1835 4.2487 1.66683 5.50981 1.66683 6.9987C1.66683 8.48759 2.1835 9.7487 3.21683 10.782C4.25016 11.8154 5.51127 12.332 7.00016 12.332Z" fill="#98A2B3"/>
</svg>
