<svg width="20" height="20" viewBox="0 0 20 20" fill="none" xmlns="http://www.w3.org/2000/svg">
<path d="M12.7169 18.5403H7.28356C3.19189 18.5403 1.44189 16.7903 1.44189 12.6986V12.5903C1.44189 8.89026 2.90023 7.10693 6.16689 6.7986C6.50023 6.7736 6.81689 7.0236 6.85023 7.36526C6.88356 7.70693 6.63356 8.01526 6.28356 8.0486C3.66689 8.29026 2.69189 9.5236 2.69189 12.5986V12.7069C2.69189 16.0986 3.89189 17.2986 7.28356 17.2986H12.7169C16.1086 17.2986 17.3086 16.0986 17.3086 12.7069V12.5986C17.3086 9.50693 16.3169 8.2736 13.6502 8.0486C13.3086 8.01526 13.0502 7.71526 13.0836 7.3736C13.1169 7.03193 13.4086 6.7736 13.7586 6.80693C17.0752 7.09026 18.5586 8.88193 18.5586 12.6069V12.7153C18.5586 16.7903 16.8086 18.5403 12.7169 18.5403Z" fill="white"/>
<path d="M10 13.124C9.65833 13.124 9.375 12.8406 9.375 12.499V3.01562C9.375 2.67396 9.65833 2.39062 10 2.39062C10.3417 2.39062 10.625 2.67396 10.625 3.01562V12.499C10.625 12.8406 10.3417 13.124 10 13.124Z" fill="white"/>
<path d="M12.7917 5.50052C12.6334 5.50052 12.475 5.44219 12.35 5.31719L10 2.96719L7.65003 5.31719C7.40837 5.55885 7.00837 5.55885 6.7667 5.31719C6.52503 5.07552 6.52503 4.67552 6.7667 4.43385L9.55837 1.64219C9.80003 1.40052 10.2 1.40052 10.4417 1.64219L13.2334 4.43385C13.475 4.67552 13.475 5.07552 13.2334 5.31719C13.1167 5.44219 12.95 5.50052 12.7917 5.50052Z" fill="white"/>
</svg>
