<svg width="16" height="18" viewBox="0 0 16 18" fill="none" xmlns="http://www.w3.org/2000/svg">
<path d="M11.9226 10.4219L8.58926 13.7553C8.26382 14.0807 7.73618 14.0807 7.41074 13.7553L4.07741 10.4219C3.75197 10.0965 3.75197 9.56886 4.07741 9.24343C4.40285 8.91799 4.93049 8.91799 5.25592 9.24343L7.16667 11.1542V1.49935C7.16667 1.03911 7.53976 0.666016 8 0.666016C8.46024 0.666016 8.83333 1.03911 8.83333 1.49935V11.1542L10.7441 9.24343C11.0695 8.91799 11.5972 8.91799 11.9226 9.24343C12.248 9.56886 12.248 10.0965 11.9226 10.4219Z" fill="#333333"/>
<path d="M9.17851 14.3445L9.94036 13.5827H15.5V14.8327C15.5 16.2134 14.3807 17.3327 13 17.3327H3C1.61929 17.3327 0.5 16.2134 0.5 14.8327V13.5827H6.05964L6.82149 14.3445C7.47236 14.9954 8.52764 14.9954 9.17851 14.3445Z" fill="#333333"/>
</svg>
