<svg width="60" height="60" viewBox="0 0 60 60" fill="none" xmlns="http://www.w3.org/2000/svg">
<path d="M19.375 46.25C10.425 46.25 3.125 38.95 3.125 30C3.125 21.05 10.425 13.75 19.375 13.75C20.4 13.75 21.25 14.6 21.25 15.625C21.25 16.65 20.4 17.5 19.375 17.5C12.475 17.5 6.875 23.1 6.875 30C6.875 36.9 12.475 42.5 19.375 42.5C26.275 42.5 31.875 36.9 31.875 30C31.875 28.975 32.725 28.125 33.75 28.125C34.775 28.125 35.625 28.975 35.625 30C35.625 38.95 28.325 46.25 19.375 46.25Z" fill="#282EFF"/>
<path d="M40 46.875C38.975 46.875 38.125 46.025 38.125 45C38.125 43.975 38.975 43.125 40 43.125C47.225 43.125 53.125 37.225 53.125 30C53.125 22.775 47.225 16.875 40 16.875C32.775 16.875 26.875 22.775 26.875 30C26.875 31.025 26.025 31.875 25 31.875C23.975 31.875 23.125 31.025 23.125 30C23.125 20.7 30.7 13.125 40 13.125C49.3 13.125 56.875 20.7 56.875 30C56.875 39.3 49.3 46.875 40 46.875Z" fill="#282EFF"/>
</svg>
