<svg width="153" height="169" viewBox="0 0 153 169" fill="none" xmlns="http://www.w3.org/2000/svg">
<path d="M152.796 151.808L81.0834 168.782L0 150.826V142.098L74.2986 125.307L152.796 142.098V151.808Z" fill="#455A64"/>
<path d="M152.796 151.808L152.434 151.917L151.365 152.199L147.242 153.217L131.974 156.854L81.1504 169.009H81.0932H81.0359L76.4841 168.009L22.3871 155.954L6.00251 152.244L1.55566 151.217L0.401015 150.935C0.267637 150.909 0.136763 150.873 0.00976562 150.826C0.145469 150.833 0.279935 150.854 0.410553 150.89L1.57475 151.117L6.05023 152.026L22.4635 155.59L76.5986 167.509L81.1409 168.518H81.0264L131.927 156.545L147.195 153.008L151.336 152.099L152.414 151.863L152.796 151.808Z" fill="#263238"/>
<path d="M152.796 143.297C152.679 143.342 152.557 143.376 152.433 143.397L151.345 143.661L147.166 144.615L131.726 148.061L80.2912 159.289H80.234L76.4742 158.507L22.4154 147.161L6.04987 143.67L1.60302 142.697L0.448364 142.433L0.0571289 142.324L0.457916 142.388L1.62211 142.606L6.08804 143.515L22.4918 146.861L76.5792 158.07L80.3389 158.861H80.1958L131.669 147.761L147.156 144.479L151.355 143.57L152.452 143.352C152.565 143.323 152.68 143.304 152.796 143.297Z" fill="#263238"/>
<path d="M42.0253 49.1472C41.7142 48.8743 41.4357 48.5694 41.1951 48.2381L39.0671 45.7834C37.2731 43.7015 34.7825 40.8377 31.9865 37.7103C29.1905 34.5828 26.614 31.8009 24.7437 29.7826L22.5298 27.3916C22.2436 27.1116 21.9849 26.8073 21.7568 26.4824C22.103 26.7136 22.4228 26.9787 22.7111 27.2734C23.2741 27.8007 24.0661 28.5916 25.0395 29.5644C26.948 31.5281 29.6008 34.2828 32.4064 37.4102C35.2119 40.5377 37.6548 43.4469 39.3725 45.5925C40.2408 46.6652 40.9279 47.538 41.386 48.1471C41.6347 48.4586 41.849 48.7937 42.0253 49.1472Z" fill="#263238"/>
<path d="M81.5318 0C81.6654 0 81.7799 10.0005 81.7799 22.3284C81.7799 34.6563 81.6654 44.6659 81.5318 44.6659C81.3982 44.6659 81.2837 34.6654 81.2837 22.3284C81.2837 9.99141 81.3886 0 81.5318 0Z" fill="#263238"/>
<path d="M136.354 22.7207C136.158 23.1096 135.925 23.4809 135.658 23.8298C135.19 24.5299 134.494 25.5208 133.625 26.7391C131.869 29.1756 129.398 32.5121 126.573 36.1305C123.749 39.7488 121.105 42.9672 119.159 45.2218C118.204 46.3764 117.384 47.2947 116.811 47.9492C116.524 48.2807 116.205 48.5852 115.857 48.8584C116.081 48.4829 116.34 48.1269 116.63 47.7947L118.844 45.0127C120.752 42.6581 123.31 39.4124 126.134 35.8032C128.959 32.1939 131.478 28.8937 133.301 26.5027L135.467 23.6844C135.73 23.3368 136.027 23.0141 136.354 22.7207Z" fill="#263238"/>
<path d="M58.353 32.1285C58.229 32.1285 56.8549 28.0465 55.2994 22.9371C54.2746 19.8709 53.4115 16.7578 52.7134 13.6094C52.847 13.6094 54.2116 17.6823 55.7765 22.8007C57.3415 27.9192 58.4866 32.0921 58.353 32.1285Z" fill="#263238"/>
<path d="M110.035 12.9277C109.82 13.8775 109.529 14.8104 109.167 15.7188C108.585 17.4189 107.774 19.7644 106.934 22.3737C106.094 24.9829 105.359 27.3648 104.835 29.0831C104.587 30.0131 104.268 30.9247 103.88 31.8105C103.98 30.8437 104.175 29.8879 104.462 28.9558C104.901 27.2103 105.579 24.8192 106.428 22.2009C107.278 19.5826 108.136 17.2461 108.804 15.5642C109.135 14.6537 109.547 13.7717 110.035 12.9277Z" fill="#263238"/>
<path d="M14.2852 65.4212L78.6308 59.5664L144.16 65.4212L79.0603 72.258L14.2852 65.4212Z" fill="#8285FF"/>
<path d="M78.8503 153.917L14.2852 139.789V65.4219L79.0603 72.2586L78.8503 153.917Z" fill="#8285FF"/>
<path d="M144.16 140.462L78.4116 153.917L79.0605 72.2586L144.16 65.4219V140.462Z" fill="#8285FF"/>
<path opacity="0.3" d="M78.4114 153.917L14.2852 139.789V65.4219L79.0603 72.2586L78.4114 153.917Z" fill="black"/>
<path d="M144.131 65.4316L143.807 65.4862L142.852 65.6044L139.14 66.0317L125.399 67.5499L79.0601 72.4956L79.2796 72.2592C79.2796 75.3412 79.2319 78.6232 79.2033 81.887C79.022 101.77 78.8502 119.771 78.7261 132.799C78.6403 139.29 78.5735 144.563 78.5258 148.254C78.5258 150.072 78.459 151.472 78.4399 152.454C78.4399 152.918 78.4399 153.272 78.4399 153.545C78.4522 153.669 78.4522 153.794 78.4399 153.918C78.4276 153.794 78.4276 153.669 78.4399 153.545C78.4399 153.272 78.4399 152.918 78.4399 152.454C78.4399 151.463 78.4399 150.054 78.4399 148.254C78.4399 144.617 78.4399 139.317 78.4876 132.799C78.5735 119.743 78.6975 101.743 78.8216 81.887C78.8216 78.5868 78.8788 75.3412 78.9075 72.2592V72.0502H79.127L125.475 67.2681L139.236 65.8953L142.948 65.5498L143.902 65.468C143.977 65.4492 144.054 65.4371 144.131 65.4316Z" fill="#263238"/>
<path d="M49.1538 62.2488C49.1538 62.1216 63.8398 63.4216 81.9135 65.149C99.9872 66.8763 114.626 68.3946 114.616 68.531C114.606 68.6673 99.9395 67.3582 81.8563 65.6217C63.7731 63.8853 49.1443 62.3852 49.1538 62.2488Z" fill="#263238"/>
</svg>
