<svg width="25" height="24" viewBox="0 0 25 24" fill="none" xmlns="http://www.w3.org/2000/svg">
<path d="M7.94336 18V15.5M7.94336 15.5V14C7.94336 13.529 7.94336 13.293 8.09736 13.146C8.25136 13 8.49836 13 8.99336 13H9.69336C10.4184 13 11.0064 13.56 11.0064 14.25C11.0064 14.94 10.4184 15.5 9.69336 15.5H7.94336ZM21.9434 13H20.6314C19.8064 13 19.3934 13 19.1374 13.244C18.8814 13.488 18.8814 13.881 18.8814 14.667V15.5M18.8814 15.5V18M18.8814 15.5H21.0684M16.6934 15.5C16.6934 16.88 15.5184 18 14.0684 18C13.7414 18 13.5784 18 13.4554 17.933C13.1644 17.773 13.1934 17.448 13.1934 17.167V13.833C13.1934 13.552 13.1634 13.227 13.4554 13.067C13.5774 13 13.7414 13 14.0684 13C15.5184 13 16.6934 14.12 16.6934 15.5Z" stroke="white" stroke-width="1.5" stroke-linecap="round" stroke-linejoin="round"/>
<path d="M15.9434 22H11.6704C8.41036 22 6.77836 22 5.64636 21.202C5.32421 20.9761 5.03626 20.705 4.79136 20.397C3.94336 19.331 3.94336 17.797 3.94336 14.727V12.182C3.94336 9.219 3.94336 7.737 4.41236 6.554C5.16636 4.651 6.76036 3.151 8.78236 2.441C10.0384 2 11.6114 2 14.7614 2C16.5594 2 17.4594 2 18.1774 2.252C19.3324 2.658 20.2434 3.515 20.6744 4.602C20.9434 5.278 20.9434 6.125 20.9434 7.818V10" stroke="white" stroke-width="1.5" stroke-linecap="round" stroke-linejoin="round"/>
<path d="M3.94336 12C3.94336 11.116 4.29451 10.2683 4.91957 9.64321C5.54463 9.01815 6.39239 8.667 7.27636 8.667C7.94236 8.667 8.72736 8.783 9.37436 8.61C9.65707 8.53392 9.91481 8.38485 10.1217 8.17774C10.3287 7.97064 10.4775 7.71277 10.5534 7.43C10.7264 6.783 10.6104 5.998 10.6104 5.332C10.6106 4.44821 10.9619 3.6007 11.5869 2.97586C12.212 2.35102 13.0596 2 13.9434 2" stroke="white" stroke-width="1.5" stroke-linecap="round" stroke-linejoin="round"/>
</svg>
