<svg width="32" height="32" viewBox="0 0 32 32" fill="none" xmlns="http://www.w3.org/2000/svg">
<rect x="2" y="2" width="28" height="28" rx="14" fill="#FFABAA"/>
<rect x="2" y="2" width="28" height="28" rx="14" stroke="#FFDFDF" stroke-width="4"/>
<path d="M16.2499 8.78125C15.1593 8.78125 14.2812 9.65937 14.2812 10.75C14.2812 11.8406 15.1593 12.7188 16.2499 12.7188C17.3405 12.7188 18.2187 11.8406 18.2187 10.75C18.2187 9.65937 17.3405 8.78125 16.2499 8.78125ZM16.2499 9.71875C16.8155 9.71875 17.2812 10.1837 17.2812 10.75C17.2812 11.3156 16.8155 11.7812 16.2499 11.7812C15.6843 11.7812 15.2187 11.3156 15.2187 10.75C15.2187 10.1837 15.6843 9.71875 16.2499 9.71875ZM16.2499 10.2812C15.9874 10.2812 15.7812 10.4878 15.7812 10.75C15.7812 11.0122 15.9874 11.2188 16.2499 11.2188C16.5124 11.2188 16.7187 11.0122 16.7187 10.75C16.7187 10.4878 16.5124 10.2812 16.2499 10.2812ZM14.8343 12.8469C14.7187 13.1313 14.5374 13.3937 14.3218 13.6469C13.9562 14.0719 13.4905 14.4812 13.0343 14.9437C12.128 15.8625 11.2718 16.95 11.3093 18.6938C11.328 19.7219 11.9718 20.8063 12.903 21.6281C13.8343 22.45 15.0405 22.9969 16.0843 23.0094C16.9874 23.0219 18.0218 22.7781 18.8062 22.225C19.5937 21.6719 20.1405 20.8344 20.1374 19.55C20.1374 19.025 19.8093 18.1938 19.6655 17.4438C19.5937 17.0688 19.5624 16.6969 19.6999 16.3562C19.8187 16.0531 20.0968 15.8187 20.4843 15.7094C20.578 15.4812 20.5468 15.3625 20.478 15.275C20.3999 15.1781 20.2093 15.0906 19.9687 15.0938C19.7312 15.0969 19.4655 15.1844 19.2718 15.3469C19.0812 15.5125 18.9468 15.7469 18.9468 16.1156C18.9499 16.9875 18.8343 17.825 18.5405 18.5219C18.2437 19.2188 17.7468 19.7812 17.0218 20.0219C16.4374 20.2125 15.7718 20.0688 15.2062 19.7656C14.6405 19.4594 14.1562 18.9812 13.9905 18.3875C13.8062 17.7156 13.978 17.0375 14.3062 16.4062C14.6343 15.775 15.1218 15.175 15.628 14.6156C16.0999 14.0938 16.5843 13.6031 16.9687 13.175C16.7405 13.2438 16.4999 13.2812 16.2499 13.2812C15.7249 13.2812 15.2374 13.1219 14.8343 12.8469Z" fill="#B30100"/>
</svg>
