<svg width="68" height="72" viewBox="0 0 68 72" fill="none" xmlns="http://www.w3.org/2000/svg">
<path d="M16.1667 9.08203H9.08333C7.20472 9.08203 5.40304 9.82831 4.07466 11.1567C2.74628 12.4851 2 14.2867 2 16.1654V58.6654C2 60.544 2.74628 62.3457 4.07466 63.674C5.40304 65.0024 7.20472 65.7487 9.08333 65.7487H29.2602M51.5833 40.957V55.1237H65.75M51.5833 30.332V16.1654C51.5833 14.2867 50.8371 12.4851 49.5087 11.1567C48.1803 9.82831 46.3786 9.08203 44.5 9.08203H37.4167" stroke="#282EFF" stroke-width="4" stroke-linecap="round" stroke-linejoin="round"/>
<path d="M16.1665 30.3333H30.3332M16.1665 44.5H26.7915M16.1665 9.08333C16.1665 7.20472 16.9128 5.40304 18.2412 4.07466C19.5695 2.74628 21.3712 2 23.2498 2H30.3332C32.2118 2 34.0135 2.74628 35.3418 4.07466C36.6702 5.40304 37.4165 7.20472 37.4165 9.08333C37.4165 10.9619 36.6702 12.7636 35.3418 14.092C34.0135 15.4204 32.2118 16.1667 30.3332 16.1667H23.2498C21.3712 16.1667 19.5695 15.4204 18.2412 14.092C16.9128 12.7636 16.1665 10.9619 16.1665 9.08333ZM37.4165 55.125C37.4165 58.8822 38.9091 62.4856 41.5658 65.1423C44.2226 67.7991 47.8259 69.2917 51.5832 69.2917C55.3404 69.2917 58.9437 67.7991 61.6005 65.1423C64.2573 62.4856 65.7498 58.8822 65.7498 55.125C65.7498 51.3678 64.2573 47.7644 61.6005 45.1077C58.9437 42.4509 55.3404 40.9583 51.5832 40.9583C47.8259 40.9583 44.2226 42.4509 41.5658 45.1077C38.9091 47.7644 37.4165 51.3678 37.4165 55.125Z" stroke="#282EFF" stroke-width="4" stroke-linecap="round" stroke-linejoin="round"/>
</svg>
