<svg width="34" height="34" viewBox="0 0 34 34" fill="none" xmlns="http://www.w3.org/2000/svg">
<rect x="2" y="2" width="30" height="30" rx="15" fill="#FFABAA"/>
<rect x="2" y="2" width="30" height="30" rx="15" stroke="#FFDFDF" stroke-width="4"/>
<g clip-path="url(#clip0_2963_7023)">
<path d="M24.874 11.9371C24.874 12.3064 24.6703 12.6721 24.2746 13.0133C23.8789 13.3545 23.2989 13.6645 22.5678 13.9256C21.8366 14.1867 20.9686 14.3939 20.0133 14.5352C19.058 14.6765 18.0341 14.7493 17 14.7493C14.9117 14.7493 12.909 14.453 11.4323 13.9256C9.95567 13.3982 9.1261 12.6829 9.1261 11.9371C9.1261 11.5678 9.32976 11.2022 9.72547 10.861C10.1212 10.5198 10.7012 10.2098 11.4323 9.94865C12.1635 9.68752 13.0315 9.48038 13.9868 9.33906C14.9421 9.19774 15.966 9.125 17 9.125C18.0341 9.125 19.058 9.19774 20.0133 9.33906C20.9686 9.48038 21.8366 9.68752 22.5678 9.94865C23.2989 10.2098 23.8789 10.5198 24.2746 10.861C24.6703 11.2022 24.874 11.5678 24.874 11.9371Z" stroke="#B30100" stroke-linecap="round" stroke-linejoin="round"/>
<path d="M24.874 22.0625C24.874 22.5561 24.5102 23.0411 23.8191 23.4686C23.128 23.8961 22.134 24.2511 20.937 24.4979C19.74 24.7447 18.3822 24.8746 17 24.8746C15.6179 24.8746 14.2601 24.7447 13.0631 24.4979C11.8661 24.2511 10.8721 23.8961 10.181 23.4686C9.48992 23.0411 9.1261 22.5561 9.1261 22.0625" stroke="#B30100" stroke-linecap="round" stroke-linejoin="round"/>
<path d="M24.874 18.6875C24.874 19.1811 24.5102 19.6661 23.8191 20.0936C23.128 20.5211 22.134 20.8761 20.937 21.1229C19.74 21.3697 18.3822 21.4996 17 21.4996C15.6179 21.4996 14.2601 21.3697 13.0631 21.1229C11.8661 20.8761 10.8721 20.5211 10.181 20.0936C9.48992 19.6661 9.1261 19.1811 9.1261 18.6875" stroke="#B30100" stroke-linecap="round" stroke-linejoin="round"/>
<path d="M24.874 15.3125C24.874 15.8061 24.5102 16.2911 23.8191 16.7186C23.128 17.1461 22.134 17.5011 20.937 17.7479C19.74 17.9947 18.3822 18.1246 17 18.1246C15.6179 18.1246 14.2601 17.9947 13.0631 17.7479C11.8661 17.5011 10.8721 17.1461 10.181 16.7186C9.48992 16.2911 9.1261 15.8061 9.1261 15.3125" stroke="#B30100" stroke-linecap="round" stroke-linejoin="round"/>
<path d="M9.1261 11.9375V22.0611" stroke="#B30100" stroke-linecap="round" stroke-linejoin="round"/>
<path d="M24.874 11.9375V22.0612" stroke="#B30100" stroke-linecap="round" stroke-linejoin="round"/>
</g>
<defs>
<clipPath id="clip0_2963_7023">
<rect width="18" height="18" fill="white" transform="translate(8 8)"/>
</clipPath>
</defs>
</svg>
