<svg width="60" height="60" viewBox="0 0 60 60" fill="none" xmlns="http://www.w3.org/2000/svg">
<path d="M37.5 56.875H22.5C8.925 56.875 3.125 51.075 3.125 37.5V22.5C3.125 8.925 8.925 3.125 22.5 3.125H37.5C51.075 3.125 56.875 8.925 56.875 22.5V37.5C56.875 51.075 51.075 56.875 37.5 56.875ZM22.5 6.875C10.975 6.875 6.875 10.975 6.875 22.5V37.5C6.875 49.025 10.975 53.125 22.5 53.125H37.5C49.025 53.125 53.125 49.025 53.125 37.5V22.5C53.125 10.975 49.025 6.875 37.5 6.875H22.5Z" fill="#282EFF"/>
<path d="M26.9001 40.9248C25.8501 40.9248 24.8751 40.6748 24.0001 40.1748C22.0001 39.0248 20.8501 36.6748 20.8501 33.6998V26.2998C20.8501 23.3498 22.0001 20.9748 24.0001 19.8248C26.0001 18.6748 28.6001 18.8498 31.1751 20.3498L37.6001 24.0498C40.1501 25.5248 41.6251 27.6998 41.6251 29.9998C41.6251 32.2998 40.1501 34.4748 37.6001 35.9498L31.1751 39.6498C29.7251 40.4998 28.2501 40.9248 26.9001 40.9248ZM26.9251 22.8248C26.5251 22.8248 26.1751 22.8998 25.9001 23.0748C25.1001 23.5498 24.6251 24.7248 24.6251 26.2998V33.6998C24.6251 35.2748 25.0751 36.4498 25.9001 36.9248C26.7001 37.3998 27.9501 37.1998 29.3251 36.3998L35.7501 32.6998C37.1251 31.8998 37.9001 30.9248 37.9001 29.9998C37.9001 29.0748 37.1251 28.0748 35.7501 27.2998L29.3251 23.5998C28.4251 23.0748 27.6001 22.8248 26.9251 22.8248Z" fill="#282EFF"/>
</svg>
