<svg width="60" height="60" viewBox="0 0 60 60" fill="none" xmlns="http://www.w3.org/2000/svg">
<path d="M37.5 56.875H22.5C8.925 56.875 3.125 51.075 3.125 37.5V22.5C3.125 8.925 8.925 3.125 22.5 3.125H37.5C51.075 3.125 56.875 8.925 56.875 22.5V37.5C56.875 51.075 51.075 56.875 37.5 56.875ZM22.5 6.875C10.975 6.875 6.875 10.975 6.875 22.5V37.5C6.875 49.025 10.975 53.125 22.5 53.125H37.5C49.025 53.125 53.125 49.025 53.125 37.5V22.5C53.125 10.975 49.025 6.875 37.5 6.875H22.5Z" fill="#282EFF"/>
<path d="M17.5001 24.0748C16.8251 24.0748 16.1501 23.6998 15.8251 23.0498C15.3501 22.1248 15.7251 20.9998 16.6501 20.5248C25.0001 16.3498 34.9751 16.3498 43.3251 20.5248C44.2501 20.9998 44.6251 22.1248 44.1751 23.0498C43.7001 23.9748 42.6001 24.3498 41.6501 23.8998C34.3501 20.2498 25.6251 20.2498 18.3251 23.8998C18.0751 24.0248 17.7751 24.0748 17.5001 24.0748Z" fill="#282EFF"/>
<path d="M30 42.6002C28.975 42.6002 28.125 41.7502 28.125 40.7252V19.8252C28.125 18.8002 28.975 17.9502 30 17.9502C31.025 17.9502 31.875 18.8002 31.875 19.8252V40.7502C31.875 41.7752 31.025 42.6002 30 42.6002Z" fill="#282EFF"/>
</svg>
