<svg width="60" height="60" viewBox="0 0 60 60" fill="none" xmlns="http://www.w3.org/2000/svg">
<path d="M28.5 56.875H19C8.025 56.875 3.125 51.975 3.125 41V31.5C3.125 20.525 8.025 15.625 19 15.625H26.5C27.525 15.625 28.375 16.475 28.375 17.5C28.375 18.525 27.525 19.375 26.5 19.375H19C10.05 19.375 6.875 22.55 6.875 31.5V41C6.875 49.95 10.05 53.125 19 53.125H28.5C37.45 53.125 40.625 49.95 40.625 41V33.5C40.625 32.475 41.475 31.625 42.5 31.625C43.525 31.625 44.375 32.475 44.375 33.5V41C44.375 51.975 39.475 56.875 28.5 56.875Z" fill="#282EFF"/>
<path d="M42.5 35.3752H34.5C27.475 35.3752 24.625 32.5252 24.625 25.5002V17.5002C24.625 16.7502 25.075 16.0502 25.775 15.7752C26.475 15.4752 27.275 15.6502 27.825 16.1752L43.825 32.1752C44.35 32.7002 44.525 33.5252 44.225 34.2252C43.95 34.9252 43.25 35.3752 42.5 35.3752ZM28.375 22.0252V25.5002C28.375 30.4752 29.525 31.6252 34.5 31.6252H37.975L28.375 22.0252Z" fill="#282EFF"/>
<path d="M39 6.875H29C27.975 6.875 27.125 6.025 27.125 5C27.125 3.975 27.975 3.125 29 3.125H39C40.025 3.125 40.875 3.975 40.875 5C40.875 6.025 40.025 6.875 39 6.875Z" fill="#282EFF"/>
<path d="M17.5 14.375C16.475 14.375 15.625 13.525 15.625 12.5C15.625 7.325 19.825 3.125 25 3.125H31.55C32.575 3.125 33.425 3.975 33.425 5C33.425 6.025 32.575 6.875 31.55 6.875H25C21.9 6.875 19.375 9.4 19.375 12.5C19.375 13.525 18.525 14.375 17.5 14.375Z" fill="#282EFF"/>
<path d="M47.9751 44.375C46.9501 44.375 46.1001 43.525 46.1001 42.5C46.1001 41.475 46.9501 40.625 47.9751 40.625C50.8251 40.625 53.1251 38.3 53.1251 35.475V20C53.1251 18.975 53.9751 18.125 55.0001 18.125C56.0251 18.125 56.8751 18.975 56.8751 20V35.475C56.8751 40.375 52.8751 44.375 47.9751 44.375Z" fill="#282EFF"/>
<path d="M55 21.8752H47.5C40.85 21.8752 38.125 19.1502 38.125 12.5002V5.00022C38.125 4.25022 38.575 3.55022 39.275 3.27522C39.975 2.97522 40.775 3.15022 41.325 3.67522L56.325 18.6752C56.85 19.2002 57.025 20.0252 56.725 20.7252C56.45 21.4252 55.75 21.8752 55 21.8752ZM41.875 9.52522V12.5002C41.875 17.0752 42.925 18.1252 47.5 18.1252H50.475L41.875 9.52522Z" fill="#282EFF"/>
</svg>
